<svg xmlns="http://www.w3.org/2000/svg" width="20" height="18" viewBox="0 0 20 18" shape-rendering="geometricPrecision">
<rect x="14" y="0" width="1" height="1" fill="rgb(170,170,170)" fill-opacity="0.085"/>
<rect x="15" y="0" width="1" height="1" fill="rgb(170,170,170)" fill-opacity="0.756"/>
<rect x="16" y="0" width="2" height="1" fill="rgb(170,170,170)" fill-opacity="1.0"/>
<rect x="18" y="0" width="1" height="1" fill="rgb(170,170,170)" fill-opacity="0.529"/>
<rect x="14" y="1" width="1" height="1" fill="rgb(170,170,170)" fill-opacity="0.629"/>
<rect x="15" y="1" width="1" height="1" fill="rgb(170,170,170)" fill-opacity="1.0"/>
<rect x="16" y="1" width="1" height="1" fill="rgb(170,170,170)" fill-opacity="0.707"/>
<rect x="17" y="1" width="1" height="1" fill="rgb(170,170,170)" fill-opacity="0.895"/>
<rect x="18" y="1" width="1" height="1" fill="rgb(170,170,170)" fill-opacity="1.0"/>
<rect x="19" y="1" width="1" height="1" fill="rgb(170,170,170)" fill-opacity="0.438"/>
<rect x="5" y="2" width="1" height="1" fill="rgb(170,170,170)" fill-opacity="0.199"/>
<rect x="6" y="2" width="1" height="1" fill="rgb(170,170,170)" fill-opacity="0.645"/>
<rect x="7" y="2" width="1" height="1" fill="rgb(170,170,170)" fill-opacity="0.853"/>
<rect x="8" y="2" width="1" height="1" fill="rgb(170,170,170)" fill-opacity="1.0"/>
<rect x="9" y="2" width="1" height="1" fill="rgb(170,170,170)" fill-opacity="0.946"/>
<rect x="10" y="2" width="1" height="1" fill="rgb(170,170,170)" fill-opacity="0.823"/>
<rect x="11" y="2" width="1" height="1" fill="rgb(170,170,170)" fill-opacity="0.456"/>
<rect x="12" y="2" width="1" height="1" fill="rgb(170,170,170)" fill-opacity="0.072"/>
<rect x="15" y="2" width="1" height="1" fill="rgb(170,170,170)" fill-opacity="0.15"/>
<rect x="18" y="2" width="1" height="1" fill="rgb(170,170,170)" fill-opacity="0.977"/>
<rect x="19" y="2" width="1" height="1" fill="rgb(170,170,170)" fill-opacity="0.959"/>
<rect x="3" y="3" width="1" height="1" fill="rgb(170,170,170)" fill-opacity="0.178"/>
<rect x="4" y="3" width="1" height="1" fill="rgb(170,170,170)" fill-opacity="0.926"/>
<rect x="5" y="3" width="2" height="1" fill="rgb(170,170,170)" fill-opacity="1.0"/>
<rect x="7" y="3" width="1" height="1" fill="rgb(170,170,170)" fill-opacity="0.98"/>
<rect x="8" y="3" width="1" height="1" fill="rgb(170,170,170)" fill-opacity="0.805"/>
<rect x="9" y="3" width="1" height="1" fill="rgb(170,170,170)" fill-opacity="0.874"/>
<rect x="10" y="3" width="3" height="1" fill="rgb(170,170,170)" fill-opacity="1.0"/>
<rect x="13" y="3" width="1" height="1" fill="rgb(170,170,170)" fill-opacity="0.629"/>
<rect x="14" y="3" width="1" height="1" fill="rgb(170,170,170)" fill-opacity="0.093"/>
<rect x="18" y="3" width="2" height="1" fill="rgb(170,170,170)" fill-opacity="1.0"/>
<rect x="3" y="4" width="1" height="1" fill="rgb(170,170,170)" fill-opacity="0.838"/>
<rect x="4" y="4" width="1" height="1" fill="rgb(170,170,170)" fill-opacity="1.0"/>
<rect x="5" y="4" width="1" height="1" fill="rgb(170,170,170)" fill-opacity="0.5"/>
<rect x="11" y="4" width="1" height="1" fill="rgb(170,170,170)" fill-opacity="0.242"/>
<rect x="12" y="4" width="1" height="1" fill="rgb(170,170,170)" fill-opacity="0.81"/>
<rect x="13" y="4" width="2" height="1" fill="rgb(170,170,170)" fill-opacity="1.0"/>
<rect x="15" y="4" width="1" height="1" fill="rgb(170,170,170)" fill-opacity="0.725"/>
<rect x="16" y="4" width="1" height="1" fill="rgb(170,170,170)" fill-opacity="0.521"/>
<rect x="17" y="4" width="1" height="1" fill="rgb(170,170,170)" fill-opacity="0.936"/>
<rect x="18" y="4" width="2" height="1" fill="rgb(170,170,170)" fill-opacity="1.0"/>
<rect x="3" y="5" width="1" height="1" fill="rgb(170,170,170)" fill-opacity="0.946"/>
<rect x="4" y="5" width="1" height="1" fill="rgb(170,170,170)" fill-opacity="1.0"/>
<rect x="13" y="5" width="1" height="1" fill="rgb(170,170,170)" fill-opacity="0.199"/>
<rect x="14" y="5" width="1" height="1" fill="rgb(170,170,170)" fill-opacity="0.763"/>
<rect x="15" y="5" width="4" height="1" fill="rgb(170,170,170)" fill-opacity="1.0"/>
<rect x="19" y="5" width="1" height="1" fill="rgb(170,170,170)" fill-opacity="0.817"/>
<rect x="2" y="6" width="1" height="1" fill="rgb(170,170,170)" fill-opacity="0.81"/>
<rect x="3" y="6" width="2" height="1" fill="rgb(170,170,170)" fill-opacity="1.0"/>
<rect x="5" y="6" width="1" height="1" fill="rgb(170,170,170)" fill-opacity="0.26"/>
<rect x="8" y="6" width="1" height="1" fill="rgb(170,170,170)" fill-opacity="0.072"/>
<rect x="9" y="6" width="1" height="1" fill="rgb(170,170,170)" fill-opacity="0.503"/>
<rect x="11" y="6" width="1" height="1" fill="rgb(170,170,170)" fill-opacity="0.451"/>
<rect x="12" y="6" width="1" height="1" fill="rgb(170,170,170)" fill-opacity="1.0"/>
<rect x="13" y="6" width="1" height="1" fill="rgb(170,170,170)" fill-opacity="0.317"/>
<rect x="16" y="6" width="1" height="1" fill="rgb(170,170,170)" fill-opacity="0.134"/>
<rect x="17" y="6" width="1" height="1" fill="rgb(170,170,170)" fill-opacity="0.59"/>
<rect x="18" y="6" width="1" height="1" fill="rgb(170,170,170)" fill-opacity="1.0"/>
<rect x="19" y="6" width="1" height="1" fill="rgb(170,170,170)" fill-opacity="0.338"/>
<rect x="1" y="7" width="1" height="1" fill="rgb(170,170,170)" fill-opacity="0.621"/>
<rect x="2" y="7" width="1" height="1" fill="rgb(170,170,170)" fill-opacity="1.0"/>
<rect x="3" y="7" width="1" height="1" fill="rgb(170,170,170)" fill-opacity="0.642"/>
<rect x="4" y="7" width="1" height="1" fill="rgb(170,170,170)" fill-opacity="1.0"/>
<rect x="5" y="7" width="1" height="1" fill="rgb(170,170,170)" fill-opacity="0.621"/>
<rect x="7" y="7" width="1" height="1" fill="rgb(170,170,170)" fill-opacity="0.248"/>
<rect x="8" y="7" width="2" height="1" fill="rgb(170,170,170)" fill-opacity="1.0"/>
<rect x="10" y="7" width="1" height="1" fill="rgb(170,170,170)" fill-opacity="0.134"/>
<rect x="12" y="7" width="1" height="1" fill="rgb(170,170,170)" fill-opacity="0.676"/>
<rect x="13" y="7" width="1" height="1" fill="rgb(170,170,170)" fill-opacity="0.289"/>
<rect x="16" y="7" width="1" height="1" fill="rgb(170,170,170)" fill-opacity="0.317"/>
<rect x="17" y="7" width="1" height="1" fill="rgb(170,170,170)" fill-opacity="1.0"/>
<rect x="18" y="7" width="1" height="1" fill="rgb(170,170,170)" fill-opacity="0.817"/>
<rect x="0" y="8" width="1" height="1" fill="rgb(170,170,170)" fill-opacity="0.15"/>
<rect x="1" y="8" width="1" height="1" fill="rgb(170,170,170)" fill-opacity="1.0"/>
<rect x="2" y="8" width="1" height="1" fill="rgb(170,170,170)" fill-opacity="0.781"/>
<rect x="4" y="8" width="1" height="1" fill="rgb(170,170,170)" fill-opacity="0.89"/>
<rect x="5" y="8" width="1" height="1" fill="rgb(170,170,170)" fill-opacity="1.0"/>
<rect x="6" y="8" width="1" height="1" fill="rgb(170,170,170)" fill-opacity="0.851"/>
<rect x="7" y="8" width="2" height="1" fill="rgb(170,170,170)" fill-opacity="1.0"/>
<rect x="9" y="8" width="1" height="1" fill="rgb(170,170,170)" fill-opacity="0.268"/>
<rect x="15" y="8" width="1" height="1" fill="rgb(170,170,170)" fill-opacity="0.428"/>
<rect x="16" y="8" width="1" height="1" fill="rgb(170,170,170)" fill-opacity="1.0"/>
<rect x="17" y="8" width="1" height="1" fill="rgb(170,170,170)" fill-opacity="0.972"/>
<rect x="18" y="8" width="1" height="1" fill="rgb(170,170,170)" fill-opacity="0.075"/>
<rect x="0" y="9" width="1" height="1" fill="rgb(170,170,170)" fill-opacity="0.621"/>
<rect x="1" y="9" width="1" height="1" fill="rgb(170,170,170)" fill-opacity="1.0"/>
<rect x="2" y="9" width="1" height="1" fill="rgb(170,170,170)" fill-opacity="0.137"/>
<rect x="4" y="9" width="1" height="1" fill="rgb(170,170,170)" fill-opacity="0.186"/>
<rect x="5" y="9" width="1" height="1" fill="rgb(170,170,170)" fill-opacity="0.882"/>
<rect x="6" y="9" width="1" height="1" fill="rgb(170,170,170)" fill-opacity="1.0"/>
<rect x="7" y="9" width="1" height="1" fill="rgb(170,170,170)" fill-opacity="0.657"/>
<rect x="8" y="9" width="1" height="1" fill="rgb(170,170,170)" fill-opacity="0.062"/>
<rect x="14" y="9" width="1" height="1" fill="rgb(170,170,170)" fill-opacity="0.085"/>
<rect x="15" y="9" width="2" height="1" fill="rgb(170,170,170)" fill-opacity="0.598"/>
<rect x="17" y="9" width="1" height="1" fill="rgb(170,170,170)" fill-opacity="0.072"/>
<rect x="0" y="10" width="1" height="1" fill="rgb(170,170,170)" fill-opacity="0.946"/>
<rect x="1" y="10" width="1" height="1" fill="rgb(170,170,170)" fill-opacity="0.977"/>
<rect x="0" y="11" width="1" height="1" fill="rgb(170,170,170)" fill-opacity="1.0"/>
<rect x="1" y="11" width="1" height="1" fill="rgb(170,170,170)" fill-opacity="0.719"/>
<rect x="4" y="11" width="1" height="1" fill="rgb(170,170,170)" fill-opacity="0.248"/>
<rect x="5" y="11" width="1" height="1" fill="rgb(170,170,170)" fill-opacity="0.075"/>
<rect x="9" y="11" width="1" height="1" fill="rgb(170,170,170)" fill-opacity="0.095"/>
<rect x="10" y="11" width="1" height="1" fill="rgb(170,170,170)" fill-opacity="0.15"/>
<rect x="17" y="11" width="1" height="1" fill="rgb(170,170,170)" fill-opacity="0.66"/>
<rect x="18" y="11" width="1" height="1" fill="rgb(170,170,170)" fill-opacity="1.0"/>
<rect x="0" y="12" width="1" height="1" fill="rgb(170,170,170)" fill-opacity="1.0"/>
<rect x="1" y="12" width="1" height="1" fill="rgb(170,170,170)" fill-opacity="0.676"/>
<rect x="2" y="12" width="1" height="1" fill="rgb(170,170,170)" fill-opacity="0.273"/>
<rect x="3" y="12" width="3" height="1" fill="rgb(170,170,170)" fill-opacity="1.0"/>
<rect x="6" y="12" width="1" height="1" fill="rgb(170,170,170)" fill-opacity="0.503"/>
<rect x="8" y="12" width="1" height="1" fill="rgb(170,170,170)" fill-opacity="0.614"/>
<rect x="9" y="12" width="1" height="1" fill="rgb(170,170,170)" fill-opacity="1.0"/>
<rect x="10" y="12" width="1" height="1" fill="rgb(170,170,170)" fill-opacity="0.606"/>
<rect x="12" y="12" width="1" height="1" fill="rgb(170,170,170)" fill-opacity="0.41"/>
<rect x="13" y="12" width="1" height="1" fill="rgb(170,170,170)" fill-opacity="0.134"/>
<rect x="16" y="12" width="1" height="1" fill="rgb(170,170,170)" fill-opacity="0.681"/>
<rect x="17" y="12" width="1" height="1" fill="rgb(170,170,170)" fill-opacity="1.0"/>
<rect x="18" y="12" width="1" height="1" fill="rgb(170,170,170)" fill-opacity="0.66"/>
<rect x="0" y="13" width="4" height="1" fill="rgb(170,170,170)" fill-opacity="1.0"/>
<rect x="4" y="13" width="1" height="1" fill="rgb(170,170,170)" fill-opacity="0.433"/>
<rect x="5" y="13" width="1" height="1" fill="rgb(170,170,170)" fill-opacity="0.895"/>
<rect x="6" y="13" width="1" height="1" fill="rgb(170,170,170)" fill-opacity="1.0"/>
<rect x="7" y="13" width="1" height="1" fill="rgb(170,170,170)" fill-opacity="0.799"/>
<rect x="8" y="13" width="1" height="1" fill="rgb(170,170,170)" fill-opacity="1.0"/>
<rect x="9" y="13" width="1" height="1" fill="rgb(170,170,170)" fill-opacity="0.768"/>
<rect x="10" y="13" width="1" height="1" fill="rgb(170,170,170)" fill-opacity="0.15"/>
<rect x="12" y="13" width="1" height="1" fill="rgb(170,170,170)" fill-opacity="1.0"/>
<rect x="13" y="13" width="1" height="1" fill="rgb(170,170,170)" fill-opacity="0.598"/>
<rect x="15" y="13" width="1" height="1" fill="rgb(170,170,170)" fill-opacity="0.681"/>
<rect x="16" y="13" width="1" height="1" fill="rgb(170,170,170)" fill-opacity="1.0"/>
<rect x="17" y="13" width="1" height="1" fill="rgb(170,170,170)" fill-opacity="0.681"/>
<rect x="0" y="14" width="1" height="1" fill="rgb(170,170,170)" fill-opacity="0.768"/>
<rect x="1" y="14" width="2" height="1" fill="rgb(170,170,170)" fill-opacity="1.0"/>
<rect x="3" y="14" width="1" height="1" fill="rgb(170,170,170)" fill-opacity="0.317"/>
<rect x="5" y="14" width="1" height="1" fill="rgb(170,170,170)" fill-opacity="0.108"/>
<rect x="6" y="14" width="1" height="1" fill="rgb(170,170,170)" fill-opacity="0.98"/>
<rect x="7" y="14" width="1" height="1" fill="rgb(170,170,170)" fill-opacity="1.0"/>
<rect x="8" y="14" width="1" height="1" fill="rgb(170,170,170)" fill-opacity="0.926"/>
<rect x="12" y="14" width="1" height="1" fill="rgb(170,170,170)" fill-opacity="1.0"/>
<rect x="13" y="14" width="1" height="1" fill="rgb(170,170,170)" fill-opacity="0.606"/>
<rect x="14" y="14" width="1" height="1" fill="rgb(170,170,170)" fill-opacity="0.681"/>
<rect x="15" y="14" width="1" height="1" fill="rgb(170,170,170)" fill-opacity="1.0"/>
<rect x="16" y="14" width="1" height="1" fill="rgb(170,170,170)" fill-opacity="0.681"/>
<rect x="12" y="15" width="3" height="1" fill="rgb(170,170,170)" fill-opacity="1.0"/>
<rect x="15" y="15" width="1" height="1" fill="rgb(170,170,170)" fill-opacity="0.681"/>
<rect x="12" y="16" width="3" height="1" fill="rgb(170,170,170)" fill-opacity="1.0"/>
<rect x="15" y="16" width="1" height="1" fill="rgb(170,170,170)" fill-opacity="0.606"/>
<rect x="16" y="16" width="1" height="1" fill="rgb(170,170,170)" fill-opacity="0.598"/>
<rect x="17" y="16" width="1" height="1" fill="rgb(170,170,170)" fill-opacity="0.134"/>
<rect x="12" y="17" width="5" height="1" fill="rgb(170,170,170)" fill-opacity="1.0"/>
<rect x="17" y="17" width="1" height="1" fill="rgb(170,170,170)" fill-opacity="0.407"/>
</svg>